# xmcd
#
# Track frame offsets:
# 150
# 12985
# 27645
# 36940
# 51802
# 63595
# 87362
# 99452
# 115932
# 131142
# 143665
# 156560
# 171420
# 186820
#
# Disc length: 2662 seconds
#
# Revision: 1
# Processed by: cddbd v1.5.1PL0 Copyright (c) Steve Scherf et al.
# Submitted via: CedeCatalogueitor 2.6.0.6 http://personales.ya.com/cdcatalogueitor
#
DISCID=cb0a640e
DTITLE=VARIOS - DAMAS NEGRAS-CD1
DYEAR=1994
DGENRE=
TTITLE0=Mad About The Boy
TTITLE1=Summertime
TTITLE2=Every Beat Of My Heart
TTITLE3=She's Out Of My Life
TTITLE4=Dancing In The Street
TTITLE5=Stormy Monday
TTITLE6=Over The Rainbow
TTITLE7=My Baby Just Cares For Me
TTITLE8=Tenderly
TTITLE9=Don't Make Me Over
TTITLE10=Laughing Boy
TTITLE11=How High The Moon
TTITLE12=Crazy About You Baby
TTITLE13=Rescue Me
EXTD=
EXTT0=
EXTT1=
EXTT2=
EXTT3=
EXTT4=
EXTT5=
EXTT6=
EXTT7=
EXTT8=
EXTT9=
EXTT10=
EXTT11=
EXTT12=
EXTT13=
PLAYORDER=
